# Blender v2.90.1 OBJ File: 'cylinder.blend'
# www.blender.org
o Cylinder
v 0.000000 -0.500000 0.500000
v 0.000000 -0.500000 -0.500000
v 0.097545 -0.490392 0.500000
v 0.097545 -0.490392 -0.500000
v 0.191342 -0.461940 0.500000
v 0.191342 -0.461940 -0.500000
v 0.277785 -0.415735 0.500000
v 0.277785 -0.415735 -0.500000
v 0.353553 -0.353553 0.500000
v 0.353553 -0.353553 -0.500000
v 0.415735 -0.277785 0.500000
v 0.415735 -0.277785 -0.500000
v 0.461940 -0.191342 0.500000
v 0.461940 -0.191342 -0.500000
v 0.490393 -0.097545 0.500000
v 0.490393 -0.097545 -0.500000
v 0.500000 0.000000 0.500000
v 0.500000 0.000000 -0.500000
v 0.490393 0.097545 0.500000
v 0.490393 0.097545 -0.500000
v 0.461940 0.191342 0.500000
v 0.461940 0.191342 -0.500000
v 0.415735 0.277785 0.500000
v 0.415735 0.277785 -0.500000
v 0.353553 0.353554 0.500000
v 0.353553 0.353554 -0.500000
v 0.277785 0.415735 0.500000
v 0.277785 0.415735 -0.500000
v 0.191342 0.461940 0.500000
v 0.191342 0.461940 -0.500000
v 0.097545 0.490393 0.500000
v 0.097545 0.490393 -0.500000
v -0.000000 0.500000 0.500000
v -0.000000 0.500000 -0.500000
v -0.097545 0.490393 0.500000
v -0.097545 0.490393 -0.500000
v -0.191342 0.461940 0.500000
v -0.191342 0.461940 -0.500000
v -0.277785 0.415735 0.500000
v -0.277785 0.415735 -0.500000
v -0.353554 0.353553 0.500000
v -0.353554 0.353553 -0.500000
v -0.415735 0.277785 0.500000
v -0.415735 0.277785 -0.500000
v -0.461940 0.191342 0.500000
v -0.461940 0.191341 -0.500000
v -0.490393 0.097545 0.500000
v -0.490393 0.097545 -0.500000
v -0.500000 -0.000000 0.500000
v -0.500000 -0.000000 -0.500000
v -0.490393 -0.097546 0.500000
v -0.490393 -0.097546 -0.500000
v -0.461940 -0.191342 0.500000
v -0.461940 -0.191342 -0.500000
v -0.415734 -0.277785 0.500000
v -0.415734 -0.277785 -0.500000
v -0.353553 -0.353554 0.500000
v -0.353553 -0.353554 -0.500000
v -0.277785 -0.415735 0.500000
v -0.277785 -0.415735 -0.500000
v -0.191341 -0.461940 0.500000
v -0.191341 -0.461940 -0.500000
v -0.097544 -0.490393 0.500000
v -0.097544 -0.490393 -0.500000
vt 0.468010 1.005887
vt 0.436760 0.373640
vt 0.468010 0.373640
vt 0.436760 1.005887
vt 0.405510 0.373640
vt 0.405510 1.005887
vt 0.374260 0.373640
vt 0.374260 1.005887
vt 0.343010 0.373640
vt 0.343010 1.005887
vt 0.311760 0.373640
vt 0.311760 1.005887
vt 0.280510 0.373640
vt 0.280510 1.005887
vt 0.249260 0.373640
vt 0.249260 1.005887
vt 0.218010 0.373640
vt 0.218010 1.005887
vt 0.186760 0.373640
vt 0.186760 1.005887
vt 0.155510 0.373640
vt 0.155510 1.005887
vt 0.124260 0.373640
vt 0.124260 1.005887
vt 0.093010 0.373640
vt 0.093010 1.005887
vt 0.061760 0.373640
vt 0.061760 1.005887
vt 0.030510 0.373640
vt 0.030510 1.005887
vt -0.000740 0.373640
vt 0.999260 1.005887
vt 0.968010 0.373640
vt 0.999260 0.373640
vt 0.968010 1.005887
vt 0.936760 0.373640
vt 0.936760 1.005887
vt 0.905510 0.373640
vt 0.905510 1.005887
vt 0.874260 0.373640
vt 0.874260 1.005887
vt 0.843010 0.373640
vt 0.843010 1.005887
vt 0.811760 0.373640
vt 0.811760 1.005887
vt 0.780510 0.373640
vt 0.780510 1.005887
vt 0.749260 0.373640
vt 0.749260 1.005887
vt 0.718010 0.373640
vt 0.718010 1.005887
vt 0.686760 0.373640
vt 0.686760 1.005887
vt 0.655510 0.373640
vt 0.655510 1.005887
vt 0.624260 0.373640
vt 0.624260 1.005887
vt 0.593010 0.373640
vt 0.593010 1.005887
vt 0.561760 0.373640
vt 0.561760 1.005887
vt 0.530510 0.373640
vt 0.796444 0.369601
vt 0.633259 0.170761
vt 0.832099 0.007576
vt 0.530510 1.005887
vt 0.499260 0.373640
vt 0.499260 1.005887
vt 0.577243 0.070243
vt 0.551517 0.331435
vt 0.290324 0.305710
vt -0.000740 1.005887
vt 0.995284 0.206417
vt 0.988328 0.241388
vt 0.974683 0.274330
vt 0.954873 0.303977
vt 0.929661 0.329190
vt 0.900014 0.349000
vt 0.867071 0.362645
vt 0.832100 0.369601
vt 0.761473 0.362645
vt 0.728530 0.349000
vt 0.698883 0.329190
vt 0.673670 0.303978
vt 0.653860 0.274331
vt 0.640215 0.241388
vt 0.633259 0.206417
vt 0.640215 0.135789
vt 0.653860 0.102847
vt 0.673669 0.073200
vt 0.698882 0.047987
vt 0.728529 0.028178
vt 0.761472 0.014532
vt 0.796443 0.007576
vt 0.867071 0.014532
vt 0.900013 0.028177
vt 0.929660 0.047987
vt 0.954873 0.073200
vt 0.974683 0.102846
vt 0.988328 0.135789
vt 0.995284 0.170760
vt 0.316050 0.044517
vt 0.346300 0.024305
vt 0.379911 0.010383
vt 0.415593 0.003285
vt 0.451974 0.003285
vt 0.487656 0.010383
vt 0.521268 0.024305
vt 0.551517 0.044517
vt 0.597455 0.100492
vt 0.611377 0.134104
vt 0.618475 0.169786
vt 0.618475 0.206167
vt 0.611377 0.241849
vt 0.597455 0.275461
vt 0.577243 0.305710
vt 0.521268 0.351647
vt 0.487656 0.365570
vt 0.451974 0.372667
vt 0.415593 0.372667
vt 0.379911 0.365570
vt 0.346299 0.351647
vt 0.316050 0.331435
vt 0.270112 0.275460
vt 0.256190 0.241848
vt 0.249092 0.206167
vt 0.249092 0.169785
vt 0.256190 0.134103
vt 0.270113 0.100492
vt 0.290325 0.070242
vn 0.0980 -0.9952 0.0000
vn 0.2903 -0.9569 0.0000
vn 0.4714 -0.8819 0.0000
vn 0.6344 -0.7730 0.0000
vn 0.7730 -0.6344 0.0000
vn 0.8819 -0.4714 0.0000
vn 0.9569 -0.2903 0.0000
vn 0.9952 -0.0980 0.0000
vn 0.9952 0.0980 -0.0000
vn 0.9569 0.2903 -0.0000
vn 0.8819 0.4714 0.0000
vn 0.7730 0.6344 -0.0000
vn 0.6344 0.7730 -0.0000
vn 0.4714 0.8819 0.0000
vn 0.2903 0.9569 -0.0000
vn 0.0980 0.9952 -0.0000
vn -0.0980 0.9952 -0.0000
vn -0.2903 0.9569 0.0000
vn -0.4714 0.8819 0.0000
vn -0.6344 0.7730 -0.0000
vn -0.7730 0.6344 -0.0000
vn -0.8819 0.4714 -0.0000
vn -0.9569 0.2903 -0.0000
vn -0.9952 0.0980 -0.0000
vn -0.9952 -0.0980 0.0000
vn -0.9569 -0.2903 0.0000
vn -0.8819 -0.4714 0.0000
vn -0.7730 -0.6344 0.0000
vn -0.6344 -0.7730 0.0000
vn -0.4714 -0.8819 0.0000
vn -0.0000 0.0000 -1.0000
vn -0.2903 -0.9569 0.0000
vn -0.0980 -0.9952 0.0000
vn 0.0000 0.0000 1.0000
s off
f 2/1/1 3/2/1 1/3/1
f 4/4/2 5/5/2 3/2/2
f 6/6/3 7/7/3 5/5/3
f 8/8/4 9/9/4 7/7/4
f 10/10/5 11/11/5 9/9/5
f 12/12/6 13/13/6 11/11/6
f 14/14/7 15/15/7 13/13/7
f 16/16/8 17/17/8 15/15/8
f 18/18/9 19/19/9 17/17/9
f 20/20/10 21/21/10 19/19/10
f 22/22/11 23/23/11 21/21/11
f 24/24/12 25/25/12 23/23/12
f 26/26/13 27/27/13 25/25/13
f 28/28/14 29/29/14 27/27/14
f 30/30/15 31/31/15 29/29/15
f 32/32/16 33/33/16 31/34/16
f 34/35/17 35/36/17 33/33/17
f 36/37/18 37/38/18 35/36/18
f 38/39/19 39/40/19 37/38/19
f 40/41/20 41/42/20 39/40/20
f 42/43/21 43/44/21 41/42/21
f 44/45/22 45/46/22 43/44/22
f 46/47/23 47/48/23 45/46/23
f 48/49/24 49/50/24 47/48/24
f 50/51/25 51/52/25 49/50/25
f 52/53/26 53/54/26 51/52/26
f 54/55/27 55/56/27 53/54/27
f 56/57/28 57/58/28 55/56/28
f 58/59/29 59/60/29 57/58/29
f 60/61/30 61/62/30 59/60/30
f 54/63/31 38/64/31 22/65/31
f 62/66/32 63/67/32 61/62/32
f 64/68/33 1/3/33 63/67/33
f 15/69/34 31/70/34 47/71/34
f 2/1/1 4/4/1 3/2/1
f 4/4/2 6/6/2 5/5/2
f 6/6/3 8/8/3 7/7/3
f 8/8/4 10/10/4 9/9/4
f 10/10/5 12/12/5 11/11/5
f 12/12/6 14/14/6 13/13/6
f 14/14/7 16/16/7 15/15/7
f 16/16/8 18/18/8 17/17/8
f 18/18/9 20/20/9 19/19/9
f 20/20/10 22/22/10 21/21/10
f 22/22/11 24/24/11 23/23/11
f 24/24/12 26/26/12 25/25/12
f 26/26/13 28/28/13 27/27/13
f 28/28/14 30/30/14 29/29/14
f 30/30/15 32/72/15 31/31/15
f 32/32/16 34/35/16 33/33/16
f 34/35/17 36/37/17 35/36/17
f 36/37/18 38/39/18 37/38/18
f 38/39/19 40/41/19 39/40/19
f 40/41/20 42/43/20 41/42/20
f 42/43/21 44/45/21 43/44/21
f 44/45/22 46/47/22 45/46/22
f 46/47/23 48/49/23 47/48/23
f 48/49/24 50/51/24 49/50/24
f 50/51/25 52/53/25 51/52/25
f 52/53/26 54/55/26 53/54/26
f 54/55/27 56/57/27 55/56/27
f 56/57/28 58/59/28 57/58/28
f 58/59/29 60/61/29 59/60/29
f 60/61/30 62/66/30 61/62/30
f 6/73/31 4/74/31 2/75/31
f 2/75/31 64/76/31 6/73/31
f 64/76/31 62/77/31 6/73/31
f 62/77/31 60/78/31 58/79/31
f 58/79/31 56/80/31 54/63/31
f 54/63/31 52/81/31 50/82/31
f 50/82/31 48/83/31 54/63/31
f 48/83/31 46/84/31 54/63/31
f 46/84/31 44/85/31 42/86/31
f 42/86/31 40/87/31 38/64/31
f 38/64/31 36/88/31 34/89/31
f 34/89/31 32/90/31 30/91/31
f 30/91/31 28/92/31 26/93/31
f 26/93/31 24/94/31 22/65/31
f 22/65/31 20/95/31 18/96/31
f 18/96/31 16/97/31 22/65/31
f 16/97/31 14/98/31 22/65/31
f 14/98/31 12/99/31 10/100/31
f 10/100/31 8/101/31 6/73/31
f 62/77/31 58/79/31 6/73/31
f 58/79/31 54/63/31 6/73/31
f 46/84/31 42/86/31 38/64/31
f 38/64/31 34/89/31 22/65/31
f 34/89/31 30/91/31 22/65/31
f 30/91/31 26/93/31 22/65/31
f 14/98/31 10/100/31 22/65/31
f 10/100/31 6/73/31 22/65/31
f 54/63/31 46/84/31 38/64/31
f 6/73/31 54/63/31 22/65/31
f 62/66/32 64/68/32 63/67/32
f 64/68/33 2/1/33 1/3/33
f 63/102/34 1/103/34 3/104/34
f 3/104/34 5/105/34 7/106/34
f 7/106/34 9/107/34 11/108/34
f 11/108/34 13/109/34 7/106/34
f 13/109/34 15/69/34 7/106/34
f 15/69/34 17/110/34 19/111/34
f 19/111/34 21/112/34 15/69/34
f 21/112/34 23/113/34 15/69/34
f 23/113/34 25/114/34 31/70/34
f 25/114/34 27/115/34 31/70/34
f 27/115/34 29/116/34 31/70/34
f 31/70/34 33/117/34 35/118/34
f 35/118/34 37/119/34 39/120/34
f 39/120/34 41/121/34 47/71/34
f 41/121/34 43/122/34 47/71/34
f 43/122/34 45/123/34 47/71/34
f 47/71/34 49/124/34 51/125/34
f 51/125/34 53/126/34 55/127/34
f 55/127/34 57/128/34 59/129/34
f 59/129/34 61/130/34 63/102/34
f 63/102/34 3/104/34 7/106/34
f 31/70/34 35/118/34 47/71/34
f 35/118/34 39/120/34 47/71/34
f 47/71/34 51/125/34 63/102/34
f 51/125/34 55/127/34 63/102/34
f 55/127/34 59/129/34 63/102/34
f 63/102/34 7/106/34 15/69/34
f 15/69/34 23/113/34 31/70/34
f 63/102/34 15/69/34 47/71/34
